<svg xmlns="http://www.w3.org/2000/svg" xmlns:xlink="http://www.w3.org/1999/xlink" viewBox="0 0 300 300"><defs><style>.cls-1{isolation:isolate;}.cls-2{fill:url(#linear-gradient);}.cls-3{opacity:0.6;}.cls-4{fill:#425ba8;}.cls-5{fill:#4767af;}.cls-6{fill:#eaeaea;}.cls-7{fill:#fff;}.cls-8{fill:#e24e26;}.cls-9{fill:#f06629;}.cls-10{opacity:0.3;mix-blend-mode:overlay;fill:url(#linear-gradient-2);}.cls-11{opacity:0.9;}</style><linearGradient id="linear-gradient" y1="150" x2="300" y2="150" gradientUnits="userSpaceOnUse"><stop offset="0" stop-color="#e24e26"/><stop offset="1" stop-color="#425ba8"/></linearGradient><linearGradient id="linear-gradient-2" x1="258.23" y1="212.49" x2="41.77" y2="87.51" gradientUnits="userSpaceOnUse"><stop offset="0" stop-color="#d05" stop-opacity="0"/><stop offset="0.03" stop-color="#df0e5f" stop-opacity="0.06"/><stop offset="0.14" stop-color="#e64684" stop-opacity="0.27"/><stop offset="0.26" stop-color="#ed77a5" stop-opacity="0.47"/><stop offset="0.37" stop-color="#f2a1c0" stop-opacity="0.63"/><stop offset="0.49" stop-color="#f7c3d7" stop-opacity="0.76"/><stop offset="0.61" stop-color="#fbdde9" stop-opacity="0.87"/><stop offset="0.74" stop-color="#fdf0f5" stop-opacity="0.94"/><stop offset="0.86" stop-color="#fffbfd" stop-opacity="0.99"/><stop offset="1" stop-color="#fff"/></linearGradient></defs><g class="cls-1"><g id="Layer_2" data-name="Layer 2"><g id="Layer_2-2" data-name="Layer 2"><path class="cls-2" d="M150,300C67.29,300,0,232.71,0,150S67.29,0,150,0,300,67.29,300,150,232.71,300,150,300Zm0-290C72.8,10,10,72.8,10,150S72.8,290,150,290s140-62.8,140-140S227.2,10,150,10Z"/><g class="cls-3"><g id="polygon2989"><polygon class="cls-4" points="247.16 111.08 238.88 203.8 201.68 214.12 164.57 203.82 156.31 111.08 247.16 111.08"/></g><g id="polygon2991"><polygon class="cls-5" points="231.79 197.9 238.87 118.67 201.73 118.67 201.73 206.24 231.79 197.9"/></g><g id="polygon2993"><polygon class="cls-6" points="175.26 153.06 176.28 164.43 201.73 164.43 201.73 153.06 175.26 153.06"/></g><g id="polygon2995"><polygon class="cls-6" points="201.73 130.04 201.69 130.04 173.21 130.04 174.24 141.41 201.73 141.41 201.73 130.04"/></g><g id="polygon2997"><polygon class="cls-6" points="201.73 194.43 201.73 182.6 201.68 182.61 189.01 179.19 188.2 170.12 182.05 170.12 176.79 170.12 178.38 187.98 201.68 194.45 201.73 194.43"/></g><g id="path2999"><path d="M177.69,85.88h13.77v5.76h-8V97.4h8v5.76H177.69Z"/></g><g id="path3001"><path d="M194.22,85.88H208v5h-8v1h8v11.52H194.22V98.15h8v-1h-8Z"/></g><g id="path3003"><path d="M210.75,85.88h13.77v5h-8v1h8v11.52H210.75V98.15h8v-1h-8Z"/></g><g id="polygon3005"><polygon class="cls-7" points="215.7 164.43 214.38 179.18 201.69 182.61 201.69 194.44 225.01 187.98 225.18 186.06 227.85 156.11 228.13 153.06 230.18 130.04 201.69 130.04 201.69 141.41 217.72 141.41 216.68 153.06 201.69 153.06 201.69 164.43 215.7 164.43"/></g><path d="M61.31,85.89h5.76V91.6h5.31V85.89h5.76v17.28H72.38V97.41H67.12v5.76H61.31M85.75,91.65H80.67V85.89h16v5.76H91.51v11.52H85.75m13.4-17.28h6L108.89,92l3.7-6.09h6v17.28h-5.76V94.61l-4,6.21-4-6.21v8.56H99.15m22.33-17.28h5.76V97.46h8.17v5.71H121.48"/><path class="cls-8" d="M61.11,203.84l-8.27-92.75H143.7l-8.27,92.7L98.19,214.11"/><path class="cls-9" d="M98.27,206.22V118.7h37.14l-7.09,79.13"/><path class="cls-6" d="M69.72,130H98.27v11.37H82.19l1,11.65h15V164.4H72.83m.5,5.71H84.75l.8,9.09,12.72,3.4v11.87L74.93,188"/><path class="cls-7" d="M126.72,130H98.22v11.37h27.45m-1,11.65H98.22v11.36h14l-1.32,14.78-12.7,3.4v11.82L121.51,188"/></g><circle class="cls-10" cx="150" cy="150" r="125"/><g class="cls-11"><path class="cls-7" d="M83.86,74.54a2.73,2.73,0,0,1-1.77-4.82,104.64,104.64,0,0,1,36.12-20,2.73,2.73,0,1,1,1.66,5.2,99.2,99.2,0,0,0-34.25,19A2.69,2.69,0,0,1,83.86,74.54Z"/><path class="cls-7" d="M70,88.81a2.76,2.76,0,0,1-1.73-.62,2.73,2.73,0,0,1-.38-3.85,106.54,106.54,0,0,1,8.54-9.23,2.73,2.73,0,0,1,3.79,3.94,100.14,100.14,0,0,0-8.1,8.76A2.77,2.77,0,0,1,70,88.81Z"/></g></g></g></g></svg>