<svg xmlns="http://www.w3.org/2000/svg" xmlns:xlink="http://www.w3.org/1999/xlink" viewBox="0 0 300 300"><defs><style>.cls-1{isolation:isolate;}.cls-2{fill:#e3a027;}.cls-3{opacity:0.6;}.cls-4{fill:#fff;}.cls-5{fill:#e9e9eb;}.cls-6{fill:#eebd22;}.cls-7{fill:#0f1010;}.cls-8{opacity:0.3;mix-blend-mode:overlay;fill:url(#linear-gradient);}.cls-9{opacity:0.9;}</style><linearGradient id="linear-gradient" x1="258.23" y1="212.49" x2="41.77" y2="87.51" gradientUnits="userSpaceOnUse"><stop offset="0" stop-color="#d05" stop-opacity="0"/><stop offset="0.03" stop-color="#df0e5f" stop-opacity="0.06"/><stop offset="0.14" stop-color="#e64684" stop-opacity="0.27"/><stop offset="0.26" stop-color="#ed77a5" stop-opacity="0.47"/><stop offset="0.37" stop-color="#f2a1c0" stop-opacity="0.63"/><stop offset="0.49" stop-color="#f7c3d7" stop-opacity="0.76"/><stop offset="0.61" stop-color="#fbdde9" stop-opacity="0.87"/><stop offset="0.74" stop-color="#fdf0f5" stop-opacity="0.94"/><stop offset="0.86" stop-color="#fffbfd" stop-opacity="0.99"/><stop offset="1" stop-color="#fff"/></linearGradient></defs><g class="cls-1"><g id="Layer_2" data-name="Layer 2"><g id="Layer_2-2" data-name="Layer 2"><path class="cls-2" d="M150,300C67.29,300,0,232.71,0,150S67.29,0,150,0,300,67.29,300,150,232.71,300,150,300Zm0-290C72.8,10,10,72.8,10,150S72.8,290,150,290s140-62.8,140-140S227.2,10,150,10Z"/><g class="cls-3"><g id="path118"><path class="cls-4" d="M85.44,94.24l0,1.64c0,.9,2.61,30.69,5.79,66.2L97,226.65l26,7.26c14.27,4,26.24,7.28,26.6,7.31s12.48-3.23,27-7.24c23.19-6.42,26.32-7.38,26.48-8.18.23-1.11,11.59-129.21,11.58-130.58v-1H85.44Z"/></g><g id="path88"><path class="cls-5" d="M123.17,234.34,97,227l-.34-1.94C96.35,223.37,85,96.59,85,94.92c0-.61,6.63-.68,65-.68,61.62,0,65,0,65,.76,0,3.13-11.77,131.59-12.06,131.84s-51,14.44-52.72,14.69c-.48.07-12.65-3.16-27-7.19Zm43.34-25.85c8.8-2.43,16.12-4.54,16.28-4.69s1.18-10.58,2.28-23.18,2.12-23.74,2.26-24.76l.24-1.85h-38v16.14h20.52l-.21,1c-.11.54-.55,5.18-1,10.31-.44,5.44-1,9.54-1.26,9.83a74.26,74.26,0,0,1-9.3,2.85l-8.78,2.34v8.22c0,5.61.15,8.22.47,8.22s7.67-2,16.47-4.41Zm20.81-64.62c-.28-2.14-2.85-30.81-2.85-31.9,0-.65-1.51-.72-17.24-.72H150v16.88l7.75.3c4.26.17,8.74.42,10,.56l2.21.25.54,6.61c.3,3.63.65,7.33.79,8.23l.24,1.64h16.08Z"/></g><g id="path80"><path class="cls-6" d="M123,233.91,97,226.65l-5.77-64.57c-3.18-35.51-5.78-65.3-5.79-66.2l0-1.64H214.57v1c0,1.37-11.35,129.47-11.58,130.58-.16.8-3.29,1.76-26.48,8.18-14.47,4-26.59,7.26-27,7.24s-12.33-3.32-26.6-7.31Zm43.56-25.11c9-2.49,16.43-4.74,16.59-5s1.22-11.22,2.38-24.37,2.19-24.25,2.31-24.67c.19-.72-1.33-.76-27.66-.76H132.29l1.19-12.54c.65-6.9,1.2-12.56,1.22-12.59s4.11-.15,9.09-.29c8.16-.22,25,.43,25.56,1,.21.21,1.59,13.79,1.59,15.65,0,.91.13.93,8.46.93h8.45l-.2-1.86c-.11-1-.83-8.92-1.59-17.56L184.67,111l-32.6-.12c-25.94-.08-32.61,0-32.61.44s-.19,2.22-.42,4.26c-.56,4.93-4.81,52.62-4.81,53.93v1h55.48l-.25,1.63c-.13.9-.56,5.47-1,10.14a81,81,0,0,1-1,8.78c-.4.39-16.72,4.75-17.74,4.74-.47,0-4.69-1.06-9.37-2.34l-8.5-2.32-.31-3.67c-.18-2-.44-4.89-.58-6.38l-.27-2.73H114.23l0,1.63c0,3.06,2,23.67,2.3,24s32,9.24,33,9.28c.36,0,8-2,17-4.51Z"/></g><g id="path78"><path class="cls-2" d="M123,233.91,97,226.65l-5.77-64.57c-3.18-35.51-5.78-65.3-5.79-66.2l0-1.64H214.57v1c0,1.37-11.35,129.47-11.58,130.58-.16.8-3.29,1.76-26.48,8.18-14.47,4-26.59,7.26-27,7.24s-12.33-3.32-26.6-7.31Zm48.38-9.72c11.41-3.15,21-5.95,21.23-6.22s10.26-108.45,10.22-112.06v-1.2H150v6.11H134.73c-11.92,0-15.27.12-15.27.54s-.19,2.22-.42,4.26c-.56,4.93-4.81,52.62-4.81,53.93v1H150v12.65c0,9.83-.12,12.65-.54,12.64s-4.38-1.06-9.06-2.34l-8.5-2.32-.31-3.67c-.18-2-.44-4.89-.58-6.38l-.27-2.73H114.23l0,1.63c0,4.68,2.07,23.78,2.55,24.08.29.18,7.88,2.36,16.86,4.84L150,213.52v8.2a57.49,57.49,0,0,0,.3,8.2c.17,0,9.64-2.58,21-5.73Zm-37.92-82.61c.63-6.83,1.23-12.5,1.33-12.59s3.58-.27,7.72-.38l7.52-.21V154H132.29Z"/></g><g id="path76"><path class="cls-7" d="M126.44,78.75V74.61h11.78V58.47h8.29V82.9H126.44Zm24,.88V76.35h5.45a31.71,31.71,0,0,0,5.46-.24c0-.14-2.46-2.91-5.46-6.16L150.44,64V58.47h22.68V65l-5.32.13-5.33.12,5.55,6,5.54,6V82.9H150.44Z"/></g></g><circle class="cls-8" cx="150" cy="150" r="125"/><g class="cls-9"><path class="cls-4" d="M83.86,74.54a2.73,2.73,0,0,1-1.77-4.82,104.64,104.64,0,0,1,36.12-20,2.73,2.73,0,1,1,1.66,5.2,99.2,99.2,0,0,0-34.25,19A2.69,2.69,0,0,1,83.86,74.54Z"/><path class="cls-4" d="M70,88.81a2.76,2.76,0,0,1-1.73-.62,2.73,2.73,0,0,1-.38-3.85,106.54,106.54,0,0,1,8.54-9.23,2.73,2.73,0,0,1,3.79,3.94,100.14,100.14,0,0,0-8.1,8.76A2.77,2.77,0,0,1,70,88.81Z"/></g></g></g></g></svg>