<svg xmlns="http://www.w3.org/2000/svg" xmlns:xlink="http://www.w3.org/1999/xlink" viewBox="0 0 300 300"><defs><style>.cls-1{isolation:isolate;}.cls-2,.cls-7{fill:#0868ac;}.cls-2,.cls-6{opacity:0.6;}.cls-3{opacity:0.3;mix-blend-mode:overlay;fill:url(#linear-gradient);}.cls-4{opacity:0.9;}.cls-5{fill:#fff;}</style><linearGradient id="linear-gradient" x1="258.23" y1="212.49" x2="41.77" y2="87.51" gradientUnits="userSpaceOnUse"><stop offset="0" stop-color="#d05" stop-opacity="0"/><stop offset="0.03" stop-color="#df0e5f" stop-opacity="0.06"/><stop offset="0.14" stop-color="#e64684" stop-opacity="0.27"/><stop offset="0.26" stop-color="#ed77a5" stop-opacity="0.47"/><stop offset="0.37" stop-color="#f2a1c0" stop-opacity="0.63"/><stop offset="0.49" stop-color="#f7c3d7" stop-opacity="0.76"/><stop offset="0.61" stop-color="#fbdde9" stop-opacity="0.87"/><stop offset="0.74" stop-color="#fdf0f5" stop-opacity="0.94"/><stop offset="0.86" stop-color="#fffbfd" stop-opacity="0.99"/><stop offset="1" stop-color="#fff"/></linearGradient></defs><g class="cls-1"><g id="Layer_2" data-name="Layer 2"><g id="Layer_2-2" data-name="Layer 2"><path class="cls-2" d="M93.25,116.75C81.75,133.3,83.17,154.81,92,172.44c.2.42.43.84.64,1.25l.41.79c.08.16.17.31.25.46s.31.54.46.82l.85,1.44.48.79,1,1.52.42.64q.67,1,1.41,2l.27.37q.63.87,1.29,1.71l.48.62,1.19,1.46.46.54c.54.64,1.09,1.28,1.65,1.89l.1.11q.83.9,1.68,1.77l.54.55,1.34,1.31.55.53c.61.57,1.22,1.13,1.84,1.68l2,1.7.69.56,1.39,1.09.75.56,1.56,1.13.73.51c.5.35,1,.68,1.52,1l.66.44c.79.49,1.58,1,2.38,1.45l.66.41,1.79,1,1,.5,1.27.67.3.14.53.25,2,.94.43.19c.78.34,1.57.66,2.36,1l.57.22,2.23.83.28.1c.82.28,1.65.55,2.48.81l.6.18a19.32,19.32,0,0,0,2.56.72c55.66,10.15,71.83-33.45,71.83-33.45-13.58,17.69-37.68,22.36-60.57,17.16-.86-.19-1.71-.46-2.55-.71l-.63-.19c-.82-.26-1.64-.52-2.46-.81l-.33-.12c-.73-.25-1.45-.52-2.17-.8l-.61-.24c-.78-.31-1.56-.64-2.33-1l-.47-.2-2-.92-.57-.27c-.51-.25-1-.52-1.52-.81l-1-.53c-.62-.33-1.22-.68-1.83-1l-.62-.34c-.8-.48-1.59-1-2.38-1.46l-.64-.42-1.69-1.13a4.2,4.2,0,0,1-.54-.38l-1.6-1.16-.72-.54-1.44-1.13-.64-.51-1.8-1.52a1.56,1.56,0,0,0-.2-.16l-1.89-1.72-.53-.51-1.35-1.35-.53-.52c-.57-.59-1.12-1.17-1.62-1.77l-.08-.09c-.58-.63-1.14-1.27-1.7-1.92l-.4-.53-1.22-1.51-.41-.55-1.4-1.87C96.66,148.84,92.1,125,102.24,105.36M129,102.82c-8.32,12-7.87,28.05-1.38,40.68a53.61,53.61,0,0,0,3.68,6.14,28.86,28.86,0,0,0,4.29,5.35c.6.67,1.23,1.3,1.87,1.94l.49.49c.62.61,1.25,1.2,1.9,1.77l.08.07c.74.65,1.49,1.22,2.25,1.86l.5.4c.77.59,1.55,1.15,2.34,1.7l.07.05,1.06.7.51.34c.56.36,1.14.71,1.72,1.05l.25.14,1.53.82c.17.1.4.18.54.28l1.07.56.16.07c.74.36,1.48.71,2.23,1l.49.21c.6.26,1.21.5,1.83.74l.78.28c.55.2,1.11.4,1.68.58l.76.25a20,20,0,0,0,2.42.7c43,7.12,52.9-26,52.9-26-8.94,12.88-26.26,19-44.74,14.22-.82-.21-1.63-.45-2.44-.7-.24-.07-.49-.15-.73-.24l-1.71-.58-.81-.29c-.61-.23-1.22-.48-1.83-.74l-.5-.2c-.75-.33-1.5-.67-2.24-1l-1.13-.57-.65-.33-1.42-.8-.34-.19c-.58-.34-1.16-.7-1.72-1.06-.18-.11-.35-.23-.52-.35l-1.12-.74c-.79-.54-1.56-1.11-2.32-1.69l-.53-.41a51.58,51.58,0,0,1-17.55-25c-3.19-10.26-2.51-21.78,3-31.13m23.3-.74a25,25,0,0,0-2,24.16,34.15,34.15,0,0,0,19.53,18.29l1.07.41.47.14,1.53.41c23.73,4.59,30.16-12.18,31.88-14.64-5.64,8.11-15.11,10.06-26.74,7.24-.92-.22-1.93-.56-2.81-.87a33.58,33.58,0,0,1-3.34-1.39,34.36,34.36,0,0,1-5.86-3.57c-10.4-7.89-16.86-23-10.08-35.24"/><circle class="cls-3" cx="150" cy="150" r="125"/><g class="cls-4"><path class="cls-5" d="M83.86,74.54a2.73,2.73,0,0,1-1.77-4.82,104.64,104.64,0,0,1,36.12-20,2.73,2.73,0,1,1,1.66,5.2,99.2,99.2,0,0,0-34.25,19A2.69,2.69,0,0,1,83.86,74.54Z"/><path class="cls-5" d="M70,88.81a2.76,2.76,0,0,1-1.73-.62,2.73,2.73,0,0,1-.38-3.85,106.54,106.54,0,0,1,8.54-9.23,2.73,2.73,0,0,1,3.79,3.94,100.14,100.14,0,0,0-8.1,8.76A2.77,2.77,0,0,1,70,88.81Z"/></g><g class="cls-6"><path class="cls-7" d="M150,300C67.29,300,0,232.71,0,150S67.29,0,150,0,300,67.29,300,150,232.71,300,150,300Zm0-290C72.8,10,10,72.8,10,150S72.8,290,150,290s140-62.8,140-140S227.2,10,150,10Z"/></g></g></g></g></svg>