<svg xmlns="http://www.w3.org/2000/svg" xmlns:xlink="http://www.w3.org/1999/xlink" viewBox="0 0 300 300"><defs><style>.cls-1{isolation:isolate;}.cls-2,.cls-6{fill:#cf649a;}.cls-2{opacity:0.6;}.cls-3{opacity:0.3;mix-blend-mode:overlay;fill:url(#linear-gradient);}.cls-4{opacity:0.9;}.cls-5{fill:#fff;}</style><linearGradient id="linear-gradient" x1="258.23" y1="212.49" x2="41.77" y2="87.51" gradientUnits="userSpaceOnUse"><stop offset="0" stop-color="#d05" stop-opacity="0"/><stop offset="0.03" stop-color="#df0e5f" stop-opacity="0.06"/><stop offset="0.14" stop-color="#e64684" stop-opacity="0.27"/><stop offset="0.26" stop-color="#ed77a5" stop-opacity="0.47"/><stop offset="0.37" stop-color="#f2a1c0" stop-opacity="0.63"/><stop offset="0.49" stop-color="#f7c3d7" stop-opacity="0.76"/><stop offset="0.61" stop-color="#fbdde9" stop-opacity="0.87"/><stop offset="0.74" stop-color="#fdf0f5" stop-opacity="0.94"/><stop offset="0.86" stop-color="#fffbfd" stop-opacity="0.99"/><stop offset="1" stop-color="#fff"/></linearGradient></defs><g class="cls-1"><g id="Layer_2" data-name="Layer 2"><g id="Layer_2-2" data-name="Layer 2"><path class="cls-2" d="M196.91,157.23A26.75,26.75,0,0,0,185.13,160c-1.22-2.42-2.44-4.52-2.64-6.1a16.78,16.78,0,0,1-.23-5.13,41,41,0,0,1,1.55-5.53c0-.23-.28-1.35-2.9-1.37s-4.87.5-5.13,1.19a29.68,29.68,0,0,0-1.09,3.88c-.46,2.39-5.23,10.85-7.95,15.29a15.49,15.49,0,0,1-1.8-4.47,16.78,16.78,0,0,1-.23-5.13,41,41,0,0,1,1.55-5.53c0-.23-.28-1.35-2.89-1.38s-4.88.51-5.13,1.2-.54,2.31-1.09,3.88-6.89,15.7-8.54,19.38c-.83,1.88-1.57,3.38-2.1,4.39s0,.08-.08.18l-.71,1.34v0c-.36.64-.74,1.24-.92,1.24a8.57,8.57,0,0,1,0-4c.94-4.9,3.23-12.55,3.2-12.83,0-.12.44-1.47-1.47-2.15a2.3,2.3,0,0,0-2.66.45c-.16,0-.28.41-.28.41s2.05-8.61-3.94-8.61c-3.76,0-8.94,4.09-11.5,7.82l-8.74,4.78c-1.39.76-2.84,1.57-4.21,2.31l-.28-.31c-7.26-7.74-20.7-13.23-20.14-23.64.2-3.78,1.52-13.76,25.8-25.85,19.88-9.9,35.8-7.19,38.57-1.14,3.94,8.63-8.5,24.68-29.17,27-7.88.89-12-2.16-13.06-3.3s-1.24-1.24-1.65-1c-.66.36-.25,1.43,0,2.06.61,1.6,3.15,4.44,7.47,5.87,3.78,1.24,13,1.93,24.2-2.39,12.52-4.85,22.29-18.31,19.42-29.56-2.92-11.45-21.91-15.21-39.86-8.83-10.69,3.8-22.27,9.75-30.6,17.54-9.9,9.24-11.48,17.32-10.82,20.67,2.31,12,18.79,19.76,25.39,25.52l-.91.51c-3.3,1.62-15.87,8.2-19,15.16-3.55,7.87.56,13.53,3.3,14.29,8.48,2.37,17.17-1.87,21.86-8.86s4.12-16,2-20.18l-.08-.16,2.59-1.52c1.68-1,3.33-1.9,4.78-2.69a31.51,31.51,0,0,0-1.7,8.63c-.36,4.47,1.47,10.26,3.88,12.55a4.3,4.3,0,0,0,3.12,1c2.8,0,4.07-2.31,5.46-5.08,1.73-3.37,3.25-7.29,3.25-7.29s-1.9,10.59,3.31,10.59c1.9,0,3.8-2.46,4.67-3.73v0l.15-.26q.17-.24.3-.48v-.05c.77-1.32,2.47-4.34,5-9.35,3.27-6.45,6.42-14.52,6.42-14.52a47.27,47.27,0,0,0,1.25,5.23,48.92,48.92,0,0,0,2.71,6.1c-.76,1.06-1.22,1.67-1.22,1.67l0,0c-.61.81-1.3,1.67-2,2.54-2.59,3.09-5.68,6.62-6.09,7.64a2.09,2.09,0,0,0,.56,2.79,5.06,5.06,0,0,0,3.2.51,14.34,14.34,0,0,0,4.77-1.09,16.36,16.36,0,0,0,4.11-2.16,9.17,9.17,0,0,0,3.94-8.1,16.22,16.22,0,0,0-1.5-5.71c.23-.33.46-.66.69-1a108.12,108.12,0,0,0,7.11-12.31,45.47,45.47,0,0,0,1.24,5.23,36.93,36.93,0,0,0,2.31,5.23,22.57,22.57,0,0,0-6.93,9c-1.5,4.32-.33,6.27,1.88,6.73a6.77,6.77,0,0,0,3.48-.71,15.71,15.71,0,0,0,4.39-2.26c2.54-1.88,5-4.5,4.85-8a15.27,15.27,0,0,0-1.09-4.75,24.68,24.68,0,0,1,12.59-1.45c11.3,1.32,13.54,8.38,13.11,11.32a7.57,7.57,0,0,1-3.58,5.08c-.79.49-1,.66-1,1,.1.53.46.51,1.14.41.94-.16,5.95-2.42,6.15-7.85.3-7-6.32-14.6-18.08-14.53Zm-87.15,29.38c-3.73,4.09-9,5.64-11.22,4.32-2.41-1.4-1.47-7.42,3.12-11.76a59.33,59.33,0,0,1,8.81-6.57l2.31-1.4.26-.15c.18-.1.38-.23.58-.36a16.19,16.19,0,0,1-3.86,15.92Zm27.3-18.56c-1.3,3.17-4,11.33-5.69,10.87-1.42-.38-2.28-6.55-.28-12.65a28.32,28.32,0,0,1,4.45-8.15c2.05-2.28,4.29-3.05,4.85-2.11C141.05,157.23,137.87,166.07,137.06,168.05Zm22.52,10.77c-.56.28-1.06.48-1.29.33s.23-.49.23-.49,2.81-3,3.93-4.41c.64-.82,1.4-1.76,2.21-2.82v.3c0,3.66-3.5,6.1-5.08,7.09Zm17.37-4c-.41-.31-.35-1.25,1-4.19a15.56,15.56,0,0,1,3.86-5,6.51,6.51,0,0,1,.38,2.18C182.18,172.44,178.93,174.14,177,174.86Z"/><circle class="cls-3" cx="150" cy="150" r="125"/><g class="cls-4"><path class="cls-5" d="M83.86,74.54a2.73,2.73,0,0,1-1.77-4.82,104.64,104.64,0,0,1,36.12-20,2.73,2.73,0,1,1,1.66,5.2,99.2,99.2,0,0,0-34.25,19A2.69,2.69,0,0,1,83.86,74.54Z"/><path class="cls-5" d="M70,88.81a2.76,2.76,0,0,1-1.73-.62,2.73,2.73,0,0,1-.38-3.85,106.54,106.54,0,0,1,8.54-9.23,2.73,2.73,0,0,1,3.79,3.94,100.14,100.14,0,0,0-8.1,8.76A2.77,2.77,0,0,1,70,88.81Z"/></g><path class="cls-6" d="M150,300C67.29,300,0,232.71,0,150S67.29,0,150,0,300,67.29,300,150,232.71,300,150,300Zm0-290C72.8,10,10,72.8,10,150S72.8,290,150,290s140-62.8,140-140S227.2,10,150,10Z"/></g></g></g></svg>